# xmcd
#
# Track frame offsets:
# 150
# 15293
# 29039
# 47777
# 53069
# 66571
# 68521
# 82887
# 98840
# 112149
# 127802
#
# Disc length: 1905 seconds
#
# Revision: 1
# Processed by: cddbd v1.5.2PL0 Copyright (c) Steve Scherf et al.
# Submitted via: CedeCatalogueitor 2.6.0.6 http://personales.ya.com/cdcatalogueitor
#
DISCID=8d076f0b
DTITLE=Madisson - Emotions Of Sensuality
DYEAR=1900
DGENRE=
TTITLE0=Souvenir
TTITLE1=The Sound Of My Garden
TTITLE2=All Right
TTITLE3=Scenic Glam
TTITLE4=Feels Like Heaven
TTITLE5=Microchip
TTITLE6=Personal Jesus
TTITLE7=Another Day
TTITLE8=Desire Me 
TTITLE9=Madison Sea
TTITLE10=Hiper Noise
EXTD=
EXTT0=
EXTT1=
EXTT2=
EXTT3=
EXTT4=
EXTT5=
EXTT6=
EXTT7=
EXTT8=
EXTT9=
EXTT10=
PLAYORDER=
